<?xml version="1.0" encoding="utf-8"?>
<!-- Generator: Adobe Illustrator 26.1.0, SVG Export Plug-In . SVG Version: 6.00 Build 0)  -->
<svg version="1.1" id="Layer_1" xmlns="http://www.w3.org/2000/svg" xmlns:xlink="http://www.w3.org/1999/xlink" x="0px" y="0px"
	 viewBox="0 0 2834.65 560.11" style="enable-background:new 0 0 2834.65 560.11;" xml:space="preserve">
<style type="text/css">
	.st0{fill:#EC1F28;}
</style>
<g>
	<g>
		<rect x="0" y="6.06" class="st0" width="599.47" height="127.16"/>
		<rect x="0.15" y="422.36" class="st0" width="609.16" height="131.7"/>
		<rect x="0" y="221.02" class="st0" width="576.76" height="113.53"/>
	</g>
	<g>
		<rect x="710.75" y="6.06" class="st0" width="599.47" height="127.16"/>
		<rect x="710.9" y="422.36" class="st0" width="609.16" height="131.7"/>
		<rect x="710.75" y="221.02" class="st0" width="576.76" height="113.53"/>
	</g>
	<g>
		<rect x="2225.34" y="6.06" class="st0" width="599.47" height="127.16"/>
		<rect x="2225.49" y="422.36" class="st0" width="609.16" height="131.7"/>
		<rect x="2225.34" y="221.02" class="st0" width="576.76" height="113.53"/>
	</g>
	<g>
		<path class="st0" d="M2113.75,133.22C2100.85,34.8,2044.87,0,1848.39,0h-197.55c-128.31,0-212.55,27.23-235.25,133.22H2113.75z"/>
		<path class="st0" d="M1581.95,309.58v-59.04c0-10.49,0.4-20.34,1.39-29.51h-173.97v113.53h173.29
			C1582.18,326.83,1581.95,318.53,1581.95,309.58z"/>
		<path class="st0" d="M1414.7,422.36c21.27,109.72,106.03,137.76,236.13,137.76h270.97c151.78,0,193.99-58.77,200.95-137.76H1414.7
			z"/>
	</g>
</g>
</svg>
