<?xml version="1.0" encoding="utf-8"?>
<!-- Generator: Adobe Illustrator 26.1.0, SVG Export Plug-In . SVG Version: 6.00 Build 0)  -->
<svg version="1.1" id="Layer_1" xmlns="http://www.w3.org/2000/svg" xmlns:xlink="http://www.w3.org/1999/xlink" x="0px" y="0px"
	 viewBox="0 0 2834.65 687.27" style="enable-background:new 0 0 2834.65 687.27;" xml:space="preserve">
<style type="text/css">
	.st0{fill:#750787;}
	.st1{fill:#004DFF;}
	.st2{fill:#008026;}
	.st3{fill:#FFED00;}
	.st4{fill:#FF8C00;}
	.st5{fill:#E40303;}
</style>
<g>
	<g>
		<path d="M0,642.26h39.52v8.38H11.08v5.79h26.94v7.49H11.08v5.78h29.08v8.69H0V642.26z"/>
		<path d="M46.93,642.26h11.08v26.85h24.89v9.28H46.93V642.26z"/>
		<path d="M87.66,642.26h39.52v8.38H98.74v5.79h26.94v7.49H98.74v5.78h29.08v8.69H87.66V642.26z"/>
		<path d="M133.77,654.93c0-10.57,5.93-13.07,15.91-13.07h13.02c15.77,0,17.81,3.39,17.72,13.62h-11.08v-1
			c0-2.59-1.89-3.34-5.18-3.34h-12.09c-5.84,0-6.94,2.74-6.94,7.23v3.89c0,5.24,1.1,7.24,6.35,7.24h11.82c4.98,0,6.48-0.5,6.48-5
			h11.08v3.4c0,6.08-2.2,10.87-13.32,10.87h-17.87c-9.98,0-15.91-2.49-15.91-13.08V654.93z"/>
		<path d="M185,642.26h42.2v8.98h-15.55v27.14h-11.08v-27.14H185V642.26z"/>
		<path d="M232.12,642.26h33.43c8.53,0,10.82,4.24,10.82,10.73v2.29c0,4.84-1.1,7.69-6.18,8.89v0.1c3.29,0.6,6.03,2.05,6.03,7.98
			v6.14h-11.07v-4.34c0-3.79-1.1-5.04-4.54-5.04H243.2v9.38h-11.08V642.26z M243.2,660.02h18.31c3,0,4.09-1.2,4.09-3.79v-1.2
			c0-3.19-1.6-3.79-5.08-3.79H243.2V660.02z"/>
		<path d="M284.53,642.26h11.08v36.13h-11.08V642.26z"/>
		<path d="M302.92,654.93c0-10.57,5.93-13.07,15.91-13.07h13.02c15.77,0,17.83,3.39,17.72,13.62H338.5v-1c0-2.59-1.9-3.34-5.2-3.34
			h-12.07c-5.84,0-6.94,2.74-6.94,7.23v3.89c0,5.24,1.1,7.24,6.35,7.24h11.82c4.98,0,6.48-0.5,6.48-5h11.08v3.4
			c0,6.08-2.2,10.87-13.32,10.87h-17.87c-9.98,0-15.91-2.49-15.91-13.08V654.93z"/>
		<path d="M372.8,642.26h14.43l19.86,36.13h-12.32l-3.45-6.39h-22.45l-3.25,6.39h-12.36L372.8,642.26z M373.01,664.21h14.16
			l-7.19-13.57L373.01,664.21z"/>
		<path d="M411.11,642.26h11.08v26.85h24.89v9.28h-35.97V642.26z"/>
		<path d="M453.63,681.58c3.74,0,4.35-0.7,4.35-2.35v-0.85h-2.79v-10.18h10.47v9.03c0,8.89-1.65,10.13-12.03,10.03V681.58z"/>
		<path d="M501.2,642.26h39.52v8.38h-28.44v5.79h26.94v7.49h-26.94v5.78h29.08v8.69H501.2V642.26z"/>
		<path d="M548.12,642.26h11.08v26.85h24.89v9.28h-35.97V642.26z"/>
		<path d="M588.85,642.26h39.52v8.38h-28.44v5.79h26.94v7.49h-26.94v5.78h29.08v8.69h-40.17V642.26z"/>
		<path d="M634.98,654.93c0-10.57,5.93-13.07,15.91-13.07h13.02c15.77,0,17.83,3.39,17.72,13.62h-11.07v-1c0-2.59-1.9-3.34-5.2-3.34
			h-12.07c-5.84,0-6.94,2.74-6.94,7.23v3.89c0,5.24,1.1,7.24,6.35,7.24h11.82c4.98,0,6.48-0.5,6.48-5h11.08v3.4
			c0,6.08-2.2,10.87-13.32,10.87h-17.87c-9.98,0-15.91-2.49-15.91-13.08V654.93z"/>
		<path d="M686.2,642.26h42.2v8.98h-15.55v27.14h-11.08v-27.14H686.2V642.26z"/>
		<path d="M733.31,642.26h33.43c8.53,0,10.82,4.24,10.82,10.73v2.29c0,4.84-1.1,7.69-6.18,8.89v0.1c3.29,0.6,6.03,2.05,6.03,7.98
			v6.14h-11.07v-4.34c0-3.79-1.1-5.04-4.54-5.04h-17.41v9.38h-11.08V642.26z M744.39,660.02h18.31c3,0,4.09-1.2,4.09-3.79v-1.2
			c0-3.19-1.6-3.79-5.08-3.79h-17.32V660.02z"/>
		<path d="M784.34,654.93c0-10.57,5.93-13.07,15.91-13.07h17.77c9.98,0,15.91,2.5,15.91,13.07v10.78c0,10.58-5.93,13.08-15.91,13.08
			h-17.77c-9.98,0-15.91-2.49-15.91-13.08V654.93z M795.71,662.27c0,5.24,1.1,7.24,6.35,7.24h14.16c5.24,0,6.35-2,6.35-7.24v-3.89
			c0-4.49-1.1-7.23-6.94-7.23h-12.98c-5.84,0-6.94,2.74-6.94,7.23V662.27z"/>
		<path d="M840.7,642.26h17.16l20.81,26.24h0.1v-26.24h11.08v36.13h-17.18l-20.8-26.25h-0.1v26.25H840.7V642.26z"/>
		<path d="M898,642.26h11.08v36.13H898V642.26z"/>
		<path d="M916.41,654.93c0-10.57,5.93-13.07,15.91-13.07h13.02c15.77,0,17.83,3.39,17.72,13.62h-11.07v-1c0-2.59-1.9-3.34-5.2-3.34
			h-12.07c-5.84,0-6.94,2.74-6.94,7.23v3.89c0,5.24,1.1,7.24,6.35,7.24h11.82c4.98,0,6.48-0.5,6.48-5h11.08v3.4
			c0,6.08-2.2,10.87-13.32,10.87h-17.87c-9.98,0-15.91-2.49-15.91-13.08V654.93z"/>
		<path d="M969.62,666.56h11.08c0.04,3.84,1.6,4.14,4.79,4.14h13.57c2.34,0,4.74-0.25,4.74-3.05c0-3.15-1.29-3.34-15.57-3.34
			c-16.67,0-18.57-2-18.57-10.88c0-6.54,0.61-11.58,14.58-11.58h15.47c12.77,0,13.97,4.34,13.97,10.67v1.15h-11.08
			c0-2.64-0.3-3.74-5.4-3.74h-12.26c-2.51,0-4.2,0.85-4.2,2.79c0,3.14,1.35,3.24,13.23,3.19c17.21-0.06,21.2,0.99,21.2,11.52
			c0,9.73-3.29,11.33-18,11.33h-13.42c-10.09,0-14.12-1.9-14.12-9.73V666.56z"/>
		<path d="M1023.88,681.58c3.74,0,4.35-0.7,4.35-2.35v-0.85h-2.79v-10.18h10.47v9.03c0,8.89-1.65,10.13-12.03,10.03V681.58z"/>
		<path d="M1087.49,642.26h14.41l19.86,36.13h-12.33l-3.44-6.39h-22.45l-3.23,6.39h-12.39L1087.49,642.26z M1087.68,664.21h14.18
			l-7.19-13.57L1087.68,664.21z"/>
		<path d="M1125.78,642.26h17.16l20.8,26.24h0.11v-26.24h11.07v36.13h-17.15l-20.81-26.25h-0.1v26.25h-11.08V642.26z"/>
		<path d="M1182.89,642.26h33.43c11.07,0,14.96,3.64,14.96,12.57v10.98c0,8.93-3.9,12.57-14.96,12.57h-33.43V642.26z
			 M1193.97,669.11h19.66c4.73,0,6.58-1.35,6.58-6.49v-4.89c0-5.13-1.84-6.48-6.58-6.48h-19.66V669.11z"/>
		<path d="M1261.95,654.93c0-10.57,5.93-13.07,15.91-13.07h13.02c15.77,0,17.83,3.39,17.72,13.62h-11.07v-1
			c0-2.59-1.9-3.34-5.2-3.34h-12.07c-5.84,0-6.94,2.74-6.94,7.23v3.89c0,5.24,1.1,7.24,6.35,7.24h11.82c4.98,0,6.48-0.5,6.48-5
			h11.08v3.4c0,6.08-2.2,10.87-13.32,10.87h-17.87c-9.98,0-15.91-2.49-15.91-13.08V654.93z"/>
		<path d="M1315.02,654.93c0-10.57,5.93-13.07,15.91-13.07h17.77c9.98,0,15.91,2.5,15.91,13.07v10.78
			c0,10.58-5.93,13.08-15.91,13.08h-17.77c-9.98,0-15.91-2.49-15.91-13.08V654.93z M1326.39,662.27c0,5.24,1.1,7.24,6.35,7.24h14.16
			c5.24,0,6.35-2,6.35-7.24v-3.89c0-4.49-1.1-7.23-6.94-7.23h-12.98c-5.84,0-6.94,2.74-6.94,7.23V662.27z"/>
		<path d="M1371.38,642.26h17.01l12.53,23.26l12.53-23.26h17.01v36.13h-10.78v-25.95h-0.1l-14.52,25.95h-8.29l-14.52-25.95h-0.1
			v25.95h-10.78V642.26z"/>
		<path d="M1438.04,642.26h30.19c10.53,0,13.08,5.29,13.08,12.37v3.09c0,5.4-2.35,11.58-10.19,11.58h-22v9.08h-11.08V642.26z
			 M1449.12,660.33h17.21c2.6,0,3.59-1.7,3.59-3.85v-1.4c0-2.44-1.2-3.84-4.54-3.84h-16.26V660.33z"/>
		<path d="M1487.36,642.26h11.08v20.86c0,4.58,1.64,6.39,6.18,6.39h10.98c4.53,0,6.18-1.8,6.18-6.39v-20.86h11.08v23.26
			c0,8.97-4.64,13.27-14.82,13.27h-15.86c-10.19,0-14.82-4.29-14.82-13.27V642.26z"/>
		<path d="M1537.8,642.26h42.22v8.98h-15.58v27.14h-11.07v-27.14h-15.57V642.26z"/>
		<path d="M1584.91,642.26h39.52v8.38h-28.44v5.79h26.94v7.49h-26.94v5.78h29.08v8.69h-40.17V642.26z"/>
		<path d="M1631.82,642.26h33.43c8.52,0,10.82,4.24,10.82,10.73v2.29c0,4.84-1.09,7.69-6.18,8.89v0.1c3.29,0.6,6.03,2.05,6.03,7.98
			v6.14h-11.07v-4.34c0-3.79-1.1-5.04-4.54-5.04h-17.41v9.38h-11.08V642.26z M1642.9,660.02h18.31c2.99,0,4.09-1.2,4.09-3.79v-1.2
			c0-3.19-1.6-3.79-5.09-3.79h-17.3V660.02z"/>
		<path d="M1708.33,642.26h39.52v8.38h-28.44v5.79h26.94v7.49h-26.94v5.78h29.08v8.69h-40.17V642.26z"/>
		<path d="M1755.25,642.26h17.16l20.81,26.24h0.1v-26.24h11.08v36.13h-17.18l-20.8-26.25h-0.1v26.25h-11.08V642.26z"/>
		<path d="M1811.17,654.93c0-10.57,5.93-13.07,15.91-13.07h16.67c12.57,0,14.32,4.54,14.32,11.58v1.15h-10.87
			c0-3.59-2.05-4.05-5.59-4.05h-12.02c-5.59,0-7.05,1.35-7.05,7.54v4.49c0,6.19,1.46,7.53,7.05,7.53h11.82
			c2.89,0,5.78-0.45,5.78-3.94v-1.05h-13.76v-7.49h24.85v10.28c0,10.38-5.4,10.87-17.87,10.87h-13.32
			c-9.98,0-15.91-2.49-15.91-13.08V654.93z"/>
		<path d="M1865.63,642.26h11.08v36.13h-11.08V642.26z"/>
		<path d="M1884.83,642.26h17.16l20.81,26.24h0.1v-26.24h11.08v36.13h-17.18l-20.8-26.25h-0.1v26.25h-11.08V642.26z"/>
		<path d="M1941.54,642.26h39.52v8.38h-28.44v5.79h26.94v7.49h-26.94v5.78h29.08v8.69h-40.17V642.26z"/>
		<path d="M1988.46,642.26h39.52v8.38h-28.44v5.79h26.94v7.49h-26.94v5.78h29.08v8.69h-40.17V642.26z"/>
		<path d="M2035.39,642.26h33.43c8.53,0,10.82,4.24,10.82,10.73v2.29c0,4.84-1.1,7.69-6.18,8.89v0.1c3.29,0.6,6.03,2.05,6.03,7.98
			v6.14h-11.07v-4.34c0-3.79-1.1-5.04-4.54-5.04h-17.41v9.38h-11.08V642.26z M2046.47,660.02h18.31c3,0,4.09-1.2,4.09-3.79v-1.2
			c0-3.19-1.6-3.79-5.08-3.79h-17.32V660.02z"/>
		<path d="M2087.8,642.26h11.08v36.13h-11.08V642.26z"/>
		<path d="M2106.99,642.26h17.16l20.81,26.24h0.1v-26.24h11.08v36.13h-17.18l-20.8-26.25h-0.1v26.25h-11.08V642.26z"/>
		<path d="M2162.92,654.93c0-10.57,5.93-13.07,15.91-13.07h16.67c12.57,0,14.32,4.54,14.32,11.58v1.15h-10.87
			c0-3.59-2.05-4.05-5.59-4.05h-12.02c-5.59,0-7.05,1.35-7.05,7.54v4.49c0,6.19,1.46,7.53,7.05,7.53h11.82
			c2.89,0,5.78-0.45,5.78-3.94v-1.05h-13.76v-7.49h24.84v10.28c0,10.38-5.4,10.87-17.87,10.87h-13.32
			c-9.98,0-15.91-2.49-15.91-13.08V654.93z"/>
		<path d="M2240.82,666.56h11.07c0.05,3.84,1.6,4.14,4.79,4.14h13.57c2.35,0,4.75-0.25,4.75-3.05c0-3.15-1.29-3.34-15.57-3.34
			c-16.67,0-18.57-2-18.57-10.88c0-6.54,0.61-11.58,14.58-11.58h15.47c12.77,0,13.97,4.34,13.97,10.67v1.15h-11.08
			c0-2.64-0.3-3.74-5.4-3.74h-12.26c-2.51,0-4.2,0.85-4.2,2.79c0,3.14,1.35,3.24,13.23,3.19c17.21-0.06,21.2,0.99,21.2,11.52
			c0,9.73-3.29,11.33-18,11.33h-13.42c-10.09,0-14.12-1.9-14.12-9.73V666.56z"/>
		<path d="M2290.64,642.26h42.22v8.98h-15.58v27.14h-11.07v-27.14h-15.57V642.26z"/>
		<path d="M2337.75,642.26h11.08v20.86c0,4.58,1.64,6.39,6.18,6.39H2366c4.54,0,6.18-1.8,6.18-6.39v-20.86h11.08v23.26
			c0,8.97-4.64,13.27-14.82,13.27h-15.87c-10.17,0-14.81-4.29-14.81-13.27V642.26z"/>
		<path d="M2391.23,642.26h33.43c11.07,0,14.96,3.64,14.96,12.57v10.98c0,8.93-3.9,12.57-14.96,12.57h-33.43V642.26z
			 M2402.31,669.11h19.66c4.74,0,6.58-1.35,6.58-6.49v-4.89c0-5.13-1.84-6.48-6.58-6.48h-19.66V669.11z"/>
		<path d="M2446.4,642.26h39.52v8.38h-28.44v5.79h26.94v7.49h-26.94v5.78h29.08v8.69h-40.17V642.26z"/>
		<path d="M2493.32,642.26h17.16l20.8,26.24h0.11v-26.24h11.07v36.13h-17.15l-20.81-26.25h-0.1v26.25h-11.08V642.26z"/>
		<path d="M2547.39,642.26h42.2v8.98h-15.55v27.14h-11.08v-27.14h-15.57V642.26z"/>
		<path d="M2618.39,654.93c0-10.57,5.93-13.07,15.91-13.07h16.67c12.57,0,14.32,4.54,14.32,11.58v1.15h-10.87
			c0-3.59-2.05-4.05-5.59-4.05h-12.02c-5.59,0-7.05,1.35-7.05,7.54v4.49c0,6.19,1.46,7.53,7.05,7.53h11.82
			c2.89,0,5.78-0.45,5.78-3.94v-1.05h-13.76v-7.49h24.85v10.28c0,10.38-5.4,10.87-17.87,10.87h-13.32
			c-9.98,0-15.91-2.49-15.91-13.08V654.93z"/>
		<path d="M2672.26,642.26h11.08v20.86c0,4.58,1.64,6.39,6.18,6.39h10.98c4.54,0,6.18-1.8,6.18-6.39v-20.86h11.08v23.26
			c0,8.97-4.64,13.27-14.82,13.27h-15.87c-10.17,0-14.81-4.29-14.81-13.27V642.26z"/>
		<path d="M2725.91,642.26h11.08v36.13h-11.08V642.26z"/>
		<path d="M2745.12,642.26h11.08v26.85h24.89v9.28h-35.97V642.26z"/>
		<path d="M2786.24,642.26h33.43c11.07,0,14.96,3.64,14.96,12.57v10.98c0,8.93-3.9,12.57-14.96,12.57h-33.43V642.26z
			 M2797.33,669.11h19.66c4.74,0,6.58-1.35,6.58-6.49v-4.89c0-5.13-1.84-6.48-6.58-6.48h-19.66V669.11z"/>
	</g>
	<g>
		<rect x="710.9" y="466.76" class="st0" width="609.15" height="87.3"/>
		<rect x="0.15" y="466.76" class="st0" width="609.16" height="87.3"/>
		<rect x="2225.49" y="466.76" class="st0" width="609.16" height="87.3"/>
		<path class="st0" d="M1428.93,466.76c34.07,72.99,111.61,93.35,221.9,93.35h270.97c121.57,0,172.76-37.75,191.93-93.35H1428.93z"
			/>
	</g>
	<g>
		<rect x="710.9" y="422.36" class="st1" width="609.15" height="44.4"/>
		<rect x="2225.49" y="422.36" class="st1" width="609.16" height="44.4"/>
		<path class="st1" d="M1428.93,466.76h684.8c4.77-13.82,7.64-28.68,9.02-44.4h-708.06
			C1417.93,439.06,1422.82,453.66,1428.93,466.76z"/>
		<rect x="0.15" y="422.36" class="st1" width="609.16" height="44.4"/>
	</g>
	<g>
		<rect x="710.75" y="277.79" class="st2" width="576.76" height="56.77"/>
		<rect x="0" y="277.79" class="st2" width="576.76" height="56.77"/>
		<path class="st2" d="M1583.35,277.79h-173.97v56.77h173.3c-0.49-3.87-0.72-8.01-0.72-12.49v-29.52
			C1581.95,287.3,1582.35,282.38,1583.35,277.79z"/>
		<rect x="2225.33" y="277.79" class="st2" width="576.76" height="56.77"/>
	</g>
	<g>
		<rect x="0" y="221.02" class="st3" width="576.76" height="59.03"/>
		<path class="st3" d="M1409.37,280.06h172.58v-29.52c0-10.49,0.4-20.34,1.4-29.51h-173.97V280.06z"/>
		<rect x="710.75" y="221.02" class="st3" width="576.76" height="59.03"/>
		<rect x="2225.33" y="221.02" class="st3" width="576.76" height="59.03"/>
	</g>
	<g>
		<rect x="710.75" y="93.35" class="st4" width="599.47" height="39.87"/>
		<rect x="2225.33" y="93.35" class="st4" width="599.47" height="39.87"/>
		<rect x="0" y="93.35" class="st4" width="599.47" height="39.87"/>
		<path class="st4" d="M1428.8,93.35c-5.54,11.89-10.05,25.03-13.23,39.87h698.17c-1.92-14.68-4.84-27.92-9-39.87H1428.8z"/>
	</g>
	<g>
		<rect x="2225.33" y="6.06" class="st5" width="599.47" height="87.3"/>
		<rect x="0" y="6.06" class="st5" width="599.47" height="87.3"/>
		<rect x="710.75" y="6.06" class="st5" width="599.47" height="87.3"/>
		<path class="st5" d="M1428.8,93.35h675.94C2080.99,25.22,2015.55,0,1848.38,0h-197.55C1540.48,0,1462.85,20.29,1428.8,93.35z"/>
	</g>
</g>
</svg>
