<?xml version="1.0" encoding="utf-8"?>
<!-- Generator: Adobe Illustrator 26.1.0, SVG Export Plug-In . SVG Version: 6.00 Build 0)  -->
<svg version="1.1" id="Layer_1" xmlns="http://www.w3.org/2000/svg" xmlns:xlink="http://www.w3.org/1999/xlink" x="0px" y="0px"
	 viewBox="0 0 2834.65 687.27" style="enable-background:new 0 0 2834.65 687.27;" xml:space="preserve">
<style type="text/css">
	.st0{fill:#EC1F28;}
</style>
<g>
	<g>
		<path d="M-0.33,642.26h39.52v8.38H10.76v5.79h26.94v7.49H10.76v5.78h29.08v8.69H-0.33V642.26z"/>
		<path d="M46.6,642.26h11.08v26.85h24.89v9.28H46.6V642.26z"/>
		<path d="M87.33,642.26h39.52v8.38H98.41v5.79h26.94v7.49H98.41v5.78h29.08v8.69H87.33V642.26z"/>
		<path d="M133.44,654.93c0-10.57,5.93-13.07,15.91-13.07h13.02c15.77,0,17.81,3.39,17.72,13.62h-11.08v-1
			c0-2.59-1.89-3.34-5.18-3.34h-12.09c-5.84,0-6.94,2.74-6.94,7.23v3.89c0,5.24,1.1,7.24,6.35,7.24h11.82c4.98,0,6.48-0.5,6.48-5
			h11.08v3.4c0,6.08-2.2,10.87-13.32,10.87h-17.87c-9.98,0-15.91-2.49-15.91-13.08V654.93z"/>
		<path d="M184.67,642.26h42.2v8.98h-15.55v27.14h-11.08v-27.14h-15.57V642.26z"/>
		<path d="M231.79,642.26h33.43c8.53,0,10.82,4.24,10.82,10.73v2.29c0,4.84-1.1,7.69-6.18,8.89v0.1c3.29,0.6,6.03,2.05,6.03,7.98
			v6.14h-11.07v-4.34c0-3.79-1.1-5.04-4.54-5.04h-17.41v9.38h-11.08V642.26z M242.87,660.03h18.31c3,0,4.09-1.2,4.09-3.79v-1.2
			c0-3.19-1.6-3.79-5.08-3.79h-17.32V660.03z"/>
		<path d="M284.2,642.26h11.08v36.13H284.2V642.26z"/>
		<path d="M302.59,654.93c0-10.57,5.93-13.07,15.91-13.07h13.02c15.77,0,17.83,3.39,17.72,13.62h-11.07v-1c0-2.59-1.9-3.34-5.2-3.34
			H320.9c-5.84,0-6.94,2.74-6.94,7.23v3.89c0,5.24,1.1,7.24,6.35,7.24h11.82c4.98,0,6.48-0.5,6.48-5h11.08v3.4
			c0,6.08-2.2,10.87-13.32,10.87h-17.87c-9.98,0-15.91-2.49-15.91-13.08V654.93z"/>
		<path d="M372.48,642.26h14.43l19.86,36.13h-12.32l-3.45-6.39h-22.45l-3.25,6.39h-12.36L372.48,642.26z M372.68,664.22h14.16
			l-7.19-13.57L372.68,664.22z"/>
		<path d="M410.78,642.26h11.08v26.85h24.89v9.28h-35.97V642.26z"/>
		<path d="M453.3,681.58c3.74,0,4.35-0.7,4.35-2.35v-0.85h-2.79v-10.18h10.47v9.03c0,8.89-1.65,10.13-12.03,10.03V681.58z"/>
		<path d="M500.87,642.26h39.52v8.38h-28.44v5.79h26.94v7.49h-26.94v5.78h29.08v8.69h-40.17V642.26z"/>
		<path d="M547.8,642.26h11.08v26.85h24.89v9.28H547.8V642.26z"/>
		<path d="M588.53,642.26h39.52v8.38h-28.44v5.79h26.94v7.49h-26.94v5.78h29.08v8.69h-40.17V642.26z"/>
		<path d="M634.65,654.93c0-10.57,5.93-13.07,15.91-13.07h13.02c15.77,0,17.83,3.39,17.72,13.62h-11.07v-1c0-2.59-1.9-3.34-5.2-3.34
			h-12.07c-5.84,0-6.94,2.74-6.94,7.23v3.89c0,5.24,1.1,7.24,6.35,7.24h11.82c4.98,0,6.48-0.5,6.48-5h11.08v3.4
			c0,6.08-2.2,10.87-13.32,10.87h-17.87c-9.98,0-15.91-2.49-15.91-13.08V654.93z"/>
		<path d="M685.87,642.26h42.2v8.98h-15.55v27.14h-11.08v-27.14h-15.57V642.26z"/>
		<path d="M732.99,642.26h33.43c8.53,0,10.82,4.24,10.82,10.73v2.29c0,4.84-1.1,7.69-6.18,8.89v0.1c3.29,0.6,6.03,2.05,6.03,7.98
			v6.14h-11.07v-4.34c0-3.79-1.1-5.04-4.54-5.04h-17.41v9.38h-11.08V642.26z M744.07,660.03h18.31c3,0,4.09-1.2,4.09-3.79v-1.2
			c0-3.19-1.6-3.79-5.08-3.79h-17.32V660.03z"/>
		<path d="M784.01,654.93c0-10.57,5.93-13.07,15.91-13.07h17.77c9.98,0,15.91,2.5,15.91,13.07v10.78c0,10.59-5.93,13.08-15.91,13.08
			h-17.77c-9.98,0-15.91-2.49-15.91-13.08V654.93z M795.38,662.27c0,5.24,1.1,7.24,6.35,7.24h14.16c5.24,0,6.35-2,6.35-7.24v-3.89
			c0-4.49-1.1-7.23-6.94-7.23h-12.98c-5.84,0-6.94,2.74-6.94,7.23V662.27z"/>
		<path d="M840.38,642.26h17.16l20.81,26.24h0.1v-26.24h11.08v36.13h-17.18l-20.8-26.25h-0.1v26.25h-11.08V642.26z"/>
		<path d="M897.68,642.26h11.08v36.13h-11.08V642.26z"/>
		<path d="M916.08,654.93c0-10.57,5.93-13.07,15.91-13.07h13.02c15.77,0,17.83,3.39,17.72,13.62h-11.07v-1c0-2.59-1.9-3.34-5.2-3.34
			h-12.07c-5.84,0-6.94,2.74-6.94,7.23v3.89c0,5.24,1.1,7.24,6.35,7.24h11.82c4.98,0,6.48-0.5,6.48-5h11.08v3.4
			c0,6.08-2.2,10.87-13.32,10.87H932c-9.98,0-15.91-2.49-15.91-13.08V654.93z"/>
		<path d="M969.3,666.56h11.08c0.04,3.84,1.6,4.14,4.79,4.14h13.57c2.34,0,4.73-0.25,4.73-3.05c0-3.15-1.29-3.34-15.57-3.34
			c-16.67,0-18.57-2-18.57-10.88c0-6.54,0.61-11.58,14.58-11.58h15.47c12.77,0,13.97,4.34,13.97,10.67v1.15h-11.08
			c0-2.64-0.3-3.74-5.4-3.74h-12.26c-2.51,0-4.2,0.85-4.2,2.79c0,3.14,1.35,3.24,13.23,3.19c17.21-0.06,21.2,0.99,21.2,11.52
			c0,9.73-3.29,11.33-18,11.33h-13.42c-10.09,0-14.12-1.9-14.12-9.73V666.56z"/>
		<path d="M1023.56,681.58c3.74,0,4.35-0.7,4.35-2.35v-0.85h-2.79v-10.18h10.47v9.03c0,8.89-1.65,10.13-12.03,10.03V681.58z"/>
		<path d="M1087.16,642.26h14.41l19.86,36.13h-12.33l-3.44-6.39h-22.45l-3.23,6.39h-12.39L1087.16,642.26z M1087.36,664.22h14.18
			l-7.19-13.57L1087.36,664.22z"/>
		<path d="M1125.46,642.26h17.16l20.8,26.24h0.11v-26.24h11.07v36.13h-17.15l-20.81-26.25h-0.1v26.25h-11.08V642.26z"/>
		<path d="M1182.57,642.26H1216c11.07,0,14.96,3.64,14.96,12.57v10.98c0,8.93-3.9,12.57-14.96,12.57h-33.43V642.26z M1193.65,669.11
			h19.66c4.74,0,6.58-1.35,6.58-6.49v-4.89c0-5.13-1.84-6.48-6.58-6.48h-19.66V669.11z"/>
		<path d="M1261.63,654.93c0-10.57,5.93-13.07,15.91-13.07h13.02c15.77,0,17.83,3.39,17.72,13.62h-11.07v-1
			c0-2.59-1.9-3.34-5.2-3.34h-12.07c-5.84,0-6.94,2.74-6.94,7.23v3.89c0,5.24,1.1,7.24,6.35,7.24h11.82c4.98,0,6.48-0.5,6.48-5
			h11.08v3.4c0,6.08-2.2,10.87-13.32,10.87h-17.87c-9.98,0-15.91-2.49-15.91-13.08V654.93z"/>
		<path d="M1314.69,654.93c0-10.57,5.93-13.07,15.91-13.07h17.77c9.98,0,15.91,2.5,15.91,13.07v10.78
			c0,10.59-5.93,13.08-15.91,13.08h-17.77c-9.98,0-15.91-2.49-15.91-13.08V654.93z M1326.06,662.27c0,5.24,1.1,7.24,6.35,7.24h14.16
			c5.24,0,6.35-2,6.35-7.24v-3.89c0-4.49-1.1-7.23-6.94-7.23H1333c-5.84,0-6.94,2.74-6.94,7.23V662.27z"/>
		<path d="M1371.06,642.26h17.01l12.53,23.26l12.53-23.26h17.01v36.13h-10.78v-25.95h-0.1l-14.52,25.95h-8.29l-14.52-25.95h-0.1
			v25.95h-10.78V642.26z"/>
		<path d="M1437.72,642.26h30.19c10.53,0,13.08,5.29,13.08,12.37v3.09c0,5.4-2.35,11.58-10.19,11.58h-22v9.08h-11.08V642.26z
			 M1448.8,660.33h17.21c2.6,0,3.59-1.7,3.59-3.85v-1.4c0-2.44-1.2-3.84-4.54-3.84h-16.26V660.33z"/>
		<path d="M1487.04,642.26h11.08v20.86c0,4.58,1.64,6.39,6.18,6.39h10.98c4.53,0,6.18-1.8,6.18-6.39v-20.86h11.08v23.26
			c0,8.97-4.64,13.27-14.82,13.27h-15.86c-10.19,0-14.82-4.29-14.82-13.27V642.26z"/>
		<path d="M1537.48,642.26h42.22v8.98h-15.58v27.14h-11.07v-27.14h-15.57V642.26z"/>
		<path d="M1584.59,642.26h39.52v8.38h-28.44v5.79h26.94v7.49h-26.94v5.78h29.08v8.69h-40.17V642.26z"/>
		<path d="M1631.5,642.26h33.43c8.52,0,10.82,4.24,10.82,10.73v2.29c0,4.84-1.09,7.69-6.18,8.89v0.1c3.29,0.6,6.03,2.05,6.03,7.98
			v6.14h-11.07v-4.34c0-3.79-1.1-5.04-4.54-5.04h-17.41v9.38h-11.08V642.26z M1642.58,660.03h18.31c2.99,0,4.09-1.2,4.09-3.79v-1.2
			c0-3.19-1.6-3.79-5.09-3.79h-17.3V660.03z"/>
		<path d="M1708.01,642.26h39.52v8.38h-28.44v5.79h26.94v7.49h-26.94v5.78h29.08v8.69h-40.17V642.26z"/>
		<path d="M1754.93,642.26h17.16l20.81,26.24h0.1v-26.24h11.08v36.13h-17.18l-20.8-26.25h-0.1v26.25h-11.08V642.26z"/>
		<path d="M1810.85,654.93c0-10.57,5.93-13.07,15.91-13.07h16.67c12.57,0,14.32,4.54,14.32,11.58v1.15h-10.87
			c0-3.59-2.05-4.05-5.59-4.05h-12.02c-5.59,0-7.05,1.35-7.05,7.54v4.49c0,6.19,1.46,7.53,7.05,7.53h11.82
			c2.89,0,5.78-0.45,5.78-3.94v-1.05h-13.76v-7.49h24.85v10.28c0,10.38-5.4,10.87-17.87,10.87h-13.32
			c-9.98,0-15.91-2.49-15.91-13.08V654.93z"/>
		<path d="M1865.31,642.26h11.08v36.13h-11.08V642.26z"/>
		<path d="M1884.51,642.26h17.16l20.81,26.24h0.1v-26.24h11.08v36.13h-17.18l-20.8-26.25h-0.1v26.25h-11.08V642.26z"/>
		<path d="M1941.22,642.26h39.52v8.38h-28.44v5.79h26.94v7.49h-26.94v5.78h29.08v8.69h-40.17V642.26z"/>
		<path d="M1988.14,642.26h39.52v8.38h-28.44v5.79h26.94v7.49h-26.94v5.78h29.08v8.69h-40.17V642.26z"/>
		<path d="M2035.07,642.26h33.43c8.53,0,10.82,4.24,10.82,10.73v2.29c0,4.84-1.1,7.69-6.18,8.89v0.1c3.29,0.6,6.03,2.05,6.03,7.98
			v6.14h-11.07v-4.34c0-3.79-1.1-5.04-4.54-5.04h-17.41v9.38h-11.08V642.26z M2046.15,660.03h18.31c3,0,4.09-1.2,4.09-3.79v-1.2
			c0-3.19-1.6-3.79-5.08-3.79h-17.32V660.03z"/>
		<path d="M2087.48,642.26h11.08v36.13h-11.08V642.26z"/>
		<path d="M2106.67,642.26h17.16l20.81,26.24h0.1v-26.24h11.08v36.13h-17.18l-20.8-26.25h-0.1v26.25h-11.08V642.26z"/>
		<path d="M2162.6,654.93c0-10.57,5.93-13.07,15.91-13.07h16.67c12.57,0,14.32,4.54,14.32,11.58v1.15h-10.87
			c0-3.59-2.05-4.05-5.59-4.05h-12.02c-5.59,0-7.05,1.35-7.05,7.54v4.49c0,6.19,1.46,7.53,7.05,7.53h11.82
			c2.89,0,5.78-0.45,5.78-3.94v-1.05h-13.76v-7.49h24.85v10.28c0,10.38-5.4,10.87-17.87,10.87h-13.32
			c-9.98,0-15.91-2.49-15.91-13.08V654.93z"/>
		<path d="M2240.5,666.56h11.07c0.05,3.84,1.6,4.14,4.79,4.14h13.57c2.35,0,4.75-0.25,4.75-3.05c0-3.15-1.29-3.34-15.57-3.34
			c-16.67,0-18.57-2-18.57-10.88c0-6.54,0.61-11.58,14.58-11.58h15.47c12.77,0,13.97,4.34,13.97,10.67v1.15h-11.08
			c0-2.64-0.3-3.74-5.4-3.74h-12.26c-2.51,0-4.2,0.85-4.2,2.79c0,3.14,1.35,3.24,13.23,3.19c17.21-0.06,21.2,0.99,21.2,11.52
			c0,9.73-3.29,11.33-18,11.33h-13.42c-10.09,0-14.12-1.9-14.12-9.73V666.56z"/>
		<path d="M2290.32,642.26h42.22v8.98h-15.58v27.14h-11.07v-27.14h-15.57V642.26z"/>
		<path d="M2337.44,642.26h11.08v20.86c0,4.58,1.64,6.39,6.18,6.39h10.98c4.54,0,6.18-1.8,6.18-6.39v-20.86h11.08v23.26
			c0,8.97-4.64,13.27-14.82,13.27h-15.87c-10.17,0-14.81-4.29-14.81-13.27V642.26z"/>
		<path d="M2390.91,642.26h33.43c11.07,0,14.96,3.64,14.96,12.57v10.98c0,8.93-3.9,12.57-14.96,12.57h-33.43V642.26z
			 M2401.99,669.11h19.66c4.74,0,6.58-1.35,6.58-6.49v-4.89c0-5.13-1.84-6.48-6.58-6.48h-19.66V669.11z"/>
		<path d="M2446.08,642.26h39.52v8.38h-28.44v5.79h26.94v7.49h-26.94v5.78h29.08v8.69h-40.17V642.26z"/>
		<path d="M2493,642.26h17.16l20.8,26.24h0.11v-26.24h11.07v36.13h-17.15l-20.81-26.25h-0.1v26.25H2493V642.26z"/>
		<path d="M2547.07,642.26h42.2v8.98h-15.55v27.14h-11.08v-27.14h-15.57V642.26z"/>
		<path d="M2618.07,654.93c0-10.57,5.93-13.07,15.91-13.07h16.67c12.57,0,14.32,4.54,14.32,11.58v1.15h-10.87
			c0-3.59-2.05-4.05-5.59-4.05h-12.02c-5.59,0-7.05,1.35-7.05,7.54v4.49c0,6.19,1.46,7.53,7.05,7.53h11.82
			c2.89,0,5.78-0.45,5.78-3.94v-1.05h-13.76v-7.49h24.85v10.28c0,10.38-5.4,10.87-17.87,10.87h-13.32
			c-9.98,0-15.91-2.49-15.91-13.08V654.93z"/>
		<path d="M2671.94,642.26h11.08v20.86c0,4.58,1.64,6.39,6.18,6.39h10.98c4.54,0,6.18-1.8,6.18-6.39v-20.86h11.08v23.26
			c0,8.97-4.64,13.27-14.82,13.27h-15.87c-10.17,0-14.81-4.29-14.81-13.27V642.26z"/>
		<path d="M2725.6,642.26h11.08v36.13h-11.08V642.26z"/>
		<path d="M2744.8,642.26h11.08v26.85h24.89v9.28h-35.97V642.26z"/>
		<path d="M2785.93,642.26h33.43c11.07,0,14.96,3.64,14.96,12.57v10.98c0,8.93-3.9,12.57-14.96,12.57h-33.43V642.26z
			 M2797.01,669.11h19.66c4.74,0,6.58-1.35,6.58-6.49v-4.89c0-5.13-1.84-6.48-6.58-6.48h-19.66V669.11z"/>
	</g>
	<g>
		<g>
			<rect x="-0.33" y="6.06" class="st0" width="599.47" height="127.17"/>
			<rect x="-0.18" y="422.36" class="st0" width="609.16" height="131.7"/>
			<rect x="-0.33" y="221.02" class="st0" width="576.76" height="113.53"/>
		</g>
		<g>
			<rect x="710.42" y="6.06" class="st0" width="599.47" height="127.17"/>
			<rect x="710.57" y="422.36" class="st0" width="609.16" height="131.7"/>
			<rect x="710.42" y="221.02" class="st0" width="576.76" height="113.53"/>
		</g>
		<g>
			<rect x="2225.02" y="6.06" class="st0" width="599.47" height="127.17"/>
			<rect x="2225.17" y="422.36" class="st0" width="609.16" height="131.7"/>
			<rect x="2225.02" y="221.02" class="st0" width="576.76" height="113.53"/>
		</g>
		<g>
			<path class="st0" d="M2113.43,133.22C2100.53,34.8,2044.55,0,1848.06,0h-197.55c-128.31,0-212.55,27.23-235.25,133.22H2113.43z"
				/>
			<path class="st0" d="M1581.63,309.58v-59.04c0-10.49,0.4-20.34,1.39-29.51h-173.97v113.53h173.29
				C1581.86,326.83,1581.63,318.53,1581.63,309.58z"/>
			<path class="st0" d="M1414.37,422.36c21.27,109.72,106.03,137.76,236.13,137.76h270.97c151.78,0,193.99-58.77,200.95-137.76
				H1414.37z"/>
		</g>
	</g>
</g>
</svg>
