<?xml version="1.0" encoding="utf-8"?>
<!-- Generator: Adobe Illustrator 26.1.0, SVG Export Plug-In . SVG Version: 6.00 Build 0)  -->
<svg version="1.1" id="Layer_1" xmlns="http://www.w3.org/2000/svg" xmlns:xlink="http://www.w3.org/1999/xlink" x="0px" y="0px"
	 viewBox="0 0 2834.6 2834.6" style="enable-background:new 0 0 2834.6 2834.6;" xml:space="preserve">
<style type="text/css">
	.st0{fill:#004DFF;}
	.st1{fill:#FF8C00;}
	.st2{fill:#008026;}
	.st3{fill:#FFED00;}
	.st4{fill:#E40303;}
	.st5{fill:#750787;}
</style>
<path class="st0" d="M0,1889.8h2834.6v472.4H0V1889.8z"/>
<path class="st1" d="M0,472.4h2834.6v472.4H0V472.4z"/>
<path class="st2" d="M2525.1,1417.3v43.6h-461.4v-43.6H1549v23.6c0,7.2,0.2,13.8,0.6,20H1411v-43.6h-97.5v43.6H852.1v-43.6H744.9
	v43.6H283.5v-43.6H0v472.4h2834.6v-472.4H2525.1z M770.9,1636.5H283.6v-105.4h487.3V1636.5z M1339.5,1636.5H852.2v-105.4h487.3
	V1636.5z M1820.9,1641.4h-216.8c-104.1,0-171.9-22.4-188.9-110.2h566.4C1976.1,1594.3,1942.3,1641.4,1820.9,1641.4z M2063.9,1636.5
	v-105.4h487.3v105.4H2063.9z"/>
<path class="st3" d="M0,944.9v472.4h283.5v-47.2h461.4v47.2h107.2v-47.2h461.4v47.2h97.5v-47.2h0h139.2c-0.8,7.3-1.1,15.2-1.1,23.6
	v23.6h514.7v-47.2h461.4v47.2h309.5V944.9H0z M763,1299.8H283.5v-101.7H763V1299.8z M1331.6,1299.8H852.1v-101.7h479.6V1299.8z
	 M1415.9,1299.9c18.2-84.8,85.6-106.6,188.2-106.6h158c157.2,0,202,27.8,212.3,106.6H1415.9z M2063.7,1299.8v-101.7h479.6v101.7
	H2063.7z"/>
<path class="st4" d="M0,283.1v189.3h2834.6v-189C2834.6,126.9,2707.7,0,2551.2,0H283.5C127,0,0.2,126.7,0,283.1z"/>
<path class="st5" d="M0,2362.2v189.3c0.2,156.4,127,283.1,283.5,283.1h2267.7c156.6,0,283.5-126.9,283.5-283.5v-189H0z"/>
</svg>
