<?xml version="1.0" encoding="utf-8"?>
<!-- Generator: Adobe Illustrator 26.1.0, SVG Export Plug-In . SVG Version: 6.00 Build 0)  -->
<svg version="1.1" id="Layer_1" xmlns="http://www.w3.org/2000/svg" xmlns:xlink="http://www.w3.org/1999/xlink" x="0px" y="0px"
	 viewBox="0 0 2834.65 2834.65" style="enable-background:new 0 0 2834.65 2834.65;" xml:space="preserve">
<style type="text/css">
	.st0{fill:#EC1F28;}
</style>
<path class="st0" d="M2551.18,0H283.46C126.91,0,0,126.91,0,283.46v2267.72c0,156.55,126.91,283.46,283.46,283.46h2267.72
	c156.55,0,283.46-126.91,283.46-283.46V283.46C2834.65,126.91,2707.73,0,2551.18,0z M2063.74,1198.12h479.57v101.73h-479.57V1198.12
	z M1604.13,1193.28h158.04c157.19,0,201.97,27.84,212.29,106.58h-558.54C1434.09,1215.06,1501.48,1193.28,1604.13,1193.28z
	 M852.06,1198.12h479.57v101.73H852.06V1198.12z M283.46,1198.12h479.57v101.73H283.46V1198.12z M283.46,1370.1h461.41v90.83H283.46
	V1370.1z M770.91,1636.53H283.58v-105.36h487.32V1636.53z M852.06,1370.1h461.41v90.83H852.06V1370.1z M1339.51,1636.53H852.18
	v-105.36h487.32V1636.53z M1410.97,1370.1h139.18c-0.79,7.34-1.11,15.22-1.11,23.61v47.23c0,7.16,0.18,13.8,0.57,19.98h-138.64
	V1370.1z M1820.91,1641.37h-216.78c-104.08,0-171.89-22.43-188.91-110.21h566.45C1976.1,1594.35,1942.33,1641.37,1820.91,1641.37z
	 M2063.74,1370.1h461.41v90.83h-461.41V1370.1z M2551.18,1636.53h-487.32v-105.36h487.32V1636.53z"/>
</svg>
